<svg xmlns="http://www.w3.org/2000/svg" width="48" height="48" viewBox="0 0 48 48">
  <path fill="currentColor" d="M24 4a8 8 0 0 0-8 8v12a8 8 0 1 0 16 0V12a8 8 0 0 0-8-8m1 33.715c7.265-.513 13-6.57 13-13.965a1.25 1.25 0 1 0-2.5 0c0 6.351-5.149 11.5-11.5 11.5s-11.5-5.149-11.5-11.5a1.25 1.25 0 1 0-2.5 0c0 7.225 5.473 13.172 12.5 13.92v5.08a1.25 1.25 0 1 0 2.5 0z"/>
  <path fill="currentColor" d="M10.94 7.06a1.5 1.5 0 0 0 0 2.12l27.88 27.88a1.5 1.5 0 0 0 2.12-2.12L13.06 7.06a1.5 1.5 0 0 0-2.12 0z"/>
</svg>
